<svg data-v-0dd9719b="" version="1.0" xmlns="http://www.w3.org/2000/svg" xmlns:xlink="http://www.w3.org/1999/xlink" width="100%" height="100%" viewBox="0 0 340.000000 250.000000" preserveAspectRatio="xMidYMid meet" color-interpolation-filters="sRGB" style="margin: auto;"> <rect data-v-0dd9719b="" x="0" y="0" width="100%" height="100%" fill="#fff" fill-opacity="1" class="background"></rect> <rect data-v-0dd9719b="" x="0" y="0" width="100%" height="100%" fill="url(#watermark)" fill-opacity="1" class="watermarklayer"></rect> <g data-v-0dd9719b="" fill="#333" class="icon-text-wrapper icon-svg-group iconsvg" transform="translate(45.95500183105469,98.97911262512207)"><g class="iconsvg-imagesvg" transform="translate(0,0)"><g><rect fill="#333" fill-opacity="0" stroke-width="2" x="0" y="0" width="60" height="52.041772195815845" class="image-rect"></rect> <svg x="0" y="0" width="60" height="52.041772195815845" filtersec="colorsb8488907447" class="image-svg-svg primary" style="overflow: visible;"><svg xmlns="http://www.w3.org/2000/svg" viewBox="0 -0.013006643392145634 54.790000915527344 47.522735595703125"><defs><linearGradient id="a6cd8c2ce-f3d3-4dcc-8b49-9fe39503fa30" y1="23.73" x2="54.79" y2="23.73" gradientUnits="userSpaceOnUse"><stop offset="0" stop-color="#30f9ce"></stop><stop offset=".49" stop-color="#d630ca"></stop><stop offset=".99" stop-color="#f9d342"></stop></linearGradient></defs><path d="M6.8 0h13.29c.59-.12.75.62 1.05 1 4.36 7.56 8.68 15.13 13.11 22.65 2.29-3.91 4.53-7.84 6.8-11.76H28.32l-.67-.21c0-.55.42-1 .65-1.42C30.21 7 32.06 3.71 34 .45c.26-.64 1-.38 1.58-.44C39.68 0 43.83 0 48 0c2.07 3.68 4.17 7.33 6.29 11 .21.4.6.86.25 1.32-2.17 3.83-4.41 7.62-6.6 11.45 2.31 3.93 4.56 7.89 6.85 11.84-2.07 3.62-4.18 7.21-6.23 10.83-.3.46-.55 1.2-1.24 1.05H34.25c-2.33-3.93-4.54-7.92-6.88-11.83-2.26 4-4.55 7.88-6.82 11.83H6.78c-2.2-4-4.56-7.88-6.78-11.86 2.27-3.94 4.53-7.89 6.83-11.82-2.07-3.73-4.2-7.37-6.31-11.01-.15-.4-.63-.87-.31-1.3C2.37 7.66 4.63 3.87 6.8 0zm6.94 35.6h13.61c-2.19-4-4.56-7.93-6.82-11.9-2.23 4-4.6 7.9-6.79 11.9z" fill="url(#a6cd8c2ce-f3d3-4dcc-8b49-9fe39503fa30)"></path></svg></svg> <!----></g></g> <g transform="translate(67,4.4558868408203125)"><g data-gra="path-name" fill-rule="" class="tp-name iconsvg-namesvg"><g transform="scale(1)"><g><path d="M11.88 4.13Q8.41 4.13 6.08 2.47 3.75 0.81 2.64-1.85 1.52-4.51 1.52-7.6L1.52-7.6Q1.52-13.73 4.54-19.93 7.55-26.13 12.26-30.14 16.96-34.16 21.71-34.16L21.71-34.16Q23.94-34.16 25.3-33.11 26.65-32.07 26.65-29.83L26.65-29.83Q26.65-27.93 25.77-25.46 24.89-22.99 23.54-21.26 22.19-19.52 20.81-19.52L20.81-19.52Q19.62-19.52 18.86-21L18.86-21Q20.67-22.99 22.35-25.75 24.04-28.5 24.04-30.21L24.04-30.21Q24.04-32.07 21.9-32.07L21.9-32.07Q18.57-32.07 14.85-28.03 11.12-23.99 8.62-18.1 6.13-12.21 6.13-7.17L6.13-7.17Q6.13-3.37 7.84-0.76 9.55 1.85 13.02 1.85L13.02 1.85Q15.49 1.85 18.05 0.45 20.62-0.95 22.76-3.28 24.89-5.61 26.18-8.31L26.18-8.31 27.41-7.51Q24.7-2.38 20.69 0.88 16.67 4.13 11.88 4.13L11.88 4.13ZM38.57 4.13Q35.77 4.13 33.49 2.68 31.21 1.24 29.9-1.47 28.6-4.18 28.6-7.79L28.6-7.79Q28.6-13.78 31.62-19.95 34.63-26.13 39.48-30.14 44.32-34.16 49.41-34.16L49.41-34.16Q51.35-34.16 52.64-32.83L52.64-32.83Q51.88-32.92 51.26-32.92L51.26-32.92Q47.27-32.92 43.11-28.93 38.95-24.94 36.25-18.95 33.54-12.97 33.54-7.51L33.54-7.51Q33.54-3.42 35.18-0.78 36.82 1.85 40.24 1.85L40.24 1.85Q44.37 1.85 47.81-2.09 51.26-6.03 53.23-11.9 55.2-17.77 55.2-23.09L55.2-23.09Q55.2-25.7 54.7-27.81 54.2-29.93 53.06-29.93L53.06-29.93Q52.07-29.93 50.76-28.24 49.45-26.56 48.36-24.18 47.27-21.81 46.89-19.9L46.89-19.9Q43.9-20.52 43.9-22.66L43.9-22.66Q43.9-24.32 45.46-26.51 47.03-28.69 49.22-30.29 51.4-31.88 53.16-31.88L53.16-31.88Q55.68-31.88 56.67-28.69 57.67-25.51 57.67-21.38L57.67-21.38Q57.67-13.78 54.68-7.96 51.69-2.14 47.24 1 42.8 4.13 38.57 4.13L38.57 4.13ZM60.38 4.13L61.47 0.67Q65.65-12.68 70.45-29.26L70.45-29.26Q70.78-30.59 70.78-31.12L70.78-31.12Q70.78-31.5 70.67-31.64 70.55-31.78 70.17-31.78L70.17-31.78Q68.88-31.78 67.7-30.48 66.51-29.17 65.77-27.34 65.04-25.51 65.04-24.09L65.04-24.09Q65.04-22.95 65.51-21.85L65.51-21.85Q63.52-21.85 62.61-22.68 61.71-23.52 61.71-24.94L61.71-24.94Q61.71-26.98 63.37-29.17 65.04-31.35 67.39-32.78 69.74-34.2 71.54-34.2L71.54-34.2Q73.59-34.2 74.82-32.26 76.06-30.31 76.7-27.36 77.34-24.42 78.1-19.33L78.1-19.33Q78.95-13.3 79.38-10.57 79.81-7.84 80.29-5.42L80.29-5.42 82.09-12.97Q83.94-21 85.13-25.39 86.32-29.79 87.46-31.73L87.46-31.73Q88.88-34.25 91.31-34.25L91.31-34.25Q89.6-29.83 87.36-22 85.13-14.16 83.56-6.77 82 0.62 82 4.13L82 4.13Q80.14 4.13 79.05 3.25 77.96 2.38 77.43 0.05L77.43 0.05Q76.86-2.38 73.49-21.05L73.49-21.05Q73.11-23.14 72.87-24.42 72.64-25.7 72.54-26.37L72.54-26.37Q68.6-12.02 66.79-6.15 64.99-0.29 63.61 1.92 62.23 4.13 60.38 4.13L60.38 4.13ZM101.38 4.13Q99.71 4.13 98.27 3.18 96.82 2.23 96.82-0.1L96.82-0.1Q96.82-1.43 97.29-3.21 97.77-4.99 98.81-8.27L98.81-8.27Q100.57-13.68 101.54-17.91 102.52-22.14 102.52-26.56L102.52-26.56Q102.52-29.31 101.9-30.76 101.28-32.21 99.62-32.21L99.62-32.21Q98.1-32.21 97.08-31.05 96.06-29.88 95.56-28.19 95.06-26.51 95.06-24.94L95.06-24.94Q95.06-23.23 95.77-21.85L95.77-21.85Q93.54-21.85 92.45-22.9 91.35-23.94 91.35-25.65L91.35-25.65Q91.35-27.6 92.61-29.6 93.87-31.59 95.99-32.9 98.1-34.2 100.57-34.2L100.57-34.2Q103.75-34.2 105.44-31.88 107.13-29.55 107.13-25.42L107.13-25.42Q107.13-22.23 106.27-18.76 105.42-15.3 103.75-9.93L103.75-9.93Q102.42-5.75 101.85-3.54 101.28-1.33 101.28 0.38L101.28 0.38Q101.28 1.24 101.52 1.62 101.76 2 102.42 2L102.42 2Q105.08 2 109.07-2.71 113.06-7.41 116.03-13.87 119-20.33 119-25.18L119-25.18Q119-29.79 115.82-30.83L115.82-30.83Q116.44-32.16 117.39-32.85 118.34-33.54 119.19-33.54L119.19-33.54Q120.05-33.54 120.88-32.78 121.71-32.02 122.23-30.62 122.76-29.22 122.76-27.36L122.76-27.36Q122.76-22.33 119.12-14.73 115.49-7.13 110.43-1.5 105.37 4.13 101.38 4.13L101.38 4.13ZM131.07 4.13Q128.12 4.13 125.8 2.95 123.47 1.76 122.21-0.29 120.95-2.33 120.95-4.8L120.95-4.8Q120.95-7.6 122.54-10.24 124.13-12.87 126.89-14.73 129.64-16.58 133.06-17.05L133.06-17.05Q131.4-18.53 130.52-20.38 129.64-22.23 129.64-24.23L129.64-24.23Q129.64-26.75 130.95-29.05 132.26-31.35 134.61-32.76 136.96-34.16 139.95-34.16L139.95-34.16Q142.85-34.16 144.42-32.76 145.99-31.35 145.99-28.69L145.99-28.69Q145.99-26.94 145.34-25.23 144.7-23.52 143.73-22.45 142.76-21.38 141.9-21.38L141.9-21.38Q140.71-21.38 139.62-23.33L139.62-23.33Q143.8-26.75 143.8-29.69L143.8-29.69Q143.8-31.07 142.87-31.83 141.95-32.59 140.38-32.59L140.38-32.59Q138.34-32.59 136.86-31.33 135.39-30.07 134.63-28.05 133.87-26.03 133.87-23.8L133.87-23.8Q133.87-21.57 134.7-19.55 135.53-17.53 137.39-16.1L137.39-16.1Q134.06-15.58 131.52-13.8 128.98-12.02 127.58-9.57 126.18-7.13 126.18-4.7L126.18-4.7Q126.18-3.09 126.82-1.57 127.46-0.05 128.84 0.97 130.21 2 132.35 2L132.35 2Q134.87 2 137.41 0.57 139.95-0.86 142.09-3.23 144.23-5.61 145.51-8.31L145.51-8.31 146.79-7.51Q143.99-2.23 139.95 0.95 135.91 4.13 131.07 4.13L131.07 4.13ZM160.05 8.88Q157.01 8.88 155.11 7.65 153.21 6.41 153.21 4.18L153.21 4.18Q153.21 2.66 154.16 1.5 155.11 0.33 156.82-0.05L156.82-0.05Q156.29 2.33 156.29 3.18L156.29 3.18Q156.29 5.13 157.36 6.18 158.43 7.22 160.62 7.22L160.62 7.22Q164.04 7.22 166.08 4.8 168.12 2.38 169.05-0.86 169.98-4.09 170.83-8.88L170.83-8.88Q171.5-12.49 171.83-13.63L171.83-13.63Q169.83-10.4 167.41-8.65 164.99-6.89 161.9-6.89L161.9-6.89Q158.91-6.89 157.48-8.55 156.06-10.21 156.06-12.97L156.06-12.97Q156.06-14.54 156.44-16.37 156.82-18.19 157.62-21.24L157.62-21.24Q158.34-23.94 158.72-25.68 159.1-27.41 159.1-28.79L159.1-28.79Q159.1-32.21 156.53-32.21L156.53-32.21Q154.92-32.21 153.82-31 152.73-29.79 152.19-28 151.64-26.22 151.64-24.47L151.64-24.47Q151.64-23.75 151.76-23.23 151.88-22.71 152.21-21.81L152.21-21.81Q150.02-21.81 149-22.8 147.98-23.8 147.98-25.46L147.98-25.46Q147.98-27.41 149.26-29.45 150.55-31.5 152.76-32.85 154.96-34.2 157.58-34.2L157.58-34.2Q160.29-34.2 161.71-32.73 163.14-31.26 163.14-28.98L163.14-28.98Q163.14-27.98 162.83-26.56 162.52-25.13 161.81-22.57L161.81-22.57Q160.95-19.43 160.52-17.53 160.1-15.63 160.1-13.92L160.1-13.92Q160.1-9.45 163.47-9.45L163.47-9.45Q166.51-9.45 169.12-12.71 171.73-15.96 173.4-20.86L173.4-20.86Q173.68-21.62 174.01-22.76 174.35-23.9 174.49-24.47L174.49-24.47Q175.96-29.26 177.01-31.73 178.05-34.2 179.38-34.2L179.38-34.2Q179.95-34.2 180.88-33.71 181.81-33.21 182.61-32.4L182.61-32.4Q180.86-29.69 179.86-27.34 178.86-24.99 177.86-21.38 176.86-17.77 174.77-9.17L174.77-9.17Q173.49-3.99 171.9-0.17 170.31 3.66 167.41 6.27 164.51 8.88 160.05 8.88L160.05 8.88Z" transform="translate(-1.5199999809265137, 34.25)"></path></g> <!----> <!----> <!----> <!----> <!----> <!----> <!----></g></g> <!----></g></g><defs v-gra="od"></defs></svg>